<?xml version="1.0" encoding="UTF-8"?>
<svg version="1.1" viewBox="0 0 2048 548" width="500" height="134" xmlns="http://www.w3.org/2000/svg">
<path transform="translate(177,130)" d="m0 0h169l5 3v8l-15 54-20 71-8 28-4 6-3 2h-166l-4-4-1-8 8-30 20-71 15-53z" fill="#04F0C8"/>
<path transform="translate(254,327)" d="m0 0h45l109 1 5 5v8l-26 93-16 56-4 9-9 1h-157l-6-2-3-4 1-8 18-65 23-81 5-10 2-2z" fill="#10D8FE"/>
<path transform="translate(1501,226)" d="m0 0h31l1 1v69l8-8 11-7 9-3h22l12 3 11 6 10 9 7 9 6 13 3 13v20l-4 15-6 12-11 12-10 7-13 5-14 2-14-1-13-5-10-9-5-4-2 14-1 1h-28zm56 79-12 6-8 9-4 11-1 5v9l3 12 6 9 7 6 11 4h14l11-4 7-5 6-8 3-10v-17l-4-11-5-7-8-6-9-3z" fill="#fff"/>
<path transform="translate(122,328)" d="m0 0h90l5 5v8l-9 34-13 44-4 6-5 1h-83l-5-2-3-4v-8l19-67 5-14z" fill="#05F0C8"/>
<path transform="translate(358,204)" d="m0 0h80l7 1 2 3v12l-13 48-9 30-5 4h-88l-5-4-1-2v-8l21-74 4-8z" fill="#07F0C9"/>
<path transform="translate(254,327)" d="m0 0h45l109 1 5 5v8l-3 9-3 1-1 5-2-1-2 3-5 2-2 1v-2h-2l-1 4-3 1v3l-7 1h-2v-2h-4v-2h-3l-1-4-9 4-11 3-15 7-21 7-11 5-20 5-4 2-14 3-10 5h-2l-1-2-6 4-5 6-4 3h-10l-3 3-2 5h-2l1-18-3 6h-1l1-11 1-2h-2l4-17 12-41 5-8 1-1z" fill="#14E7EA"/>
<path transform="translate(1405,278)" d="m0 0h25l13 3 11 6 10 9 6 12 2 7 1 9v76h-26l-2-6-1-10-16 14-13 5-8 1h-9l-13-2-12-6-9-9-4-8-2-7v-9l3-10 6-9 8-7 11-5 11-2 44-1-1-11-5-8-5-4-6-2h-15l-9 4-5 6-4 7-30-1 2-9 6-12 9-10 12-7 9-3zm2 71-9 3-5 5-2 9 3 7 5 4 6 2h13l9-4 7-7 5-10 2-8-1-1z" fill="#fff"/>
<path transform="translate(1034,278)" d="m0 0h25l16 4 11 7 8 8 6 12 2 16v75h-26l-1-1-2-14-3-1-2 4-7 7-10 6-7 2-8 1h-9l-12-2-14-7-7-7-5-10-1-3v-15l4-10 6-8 10-7 12-4 7-1 44-1-3-14-4-6-7-4-4-1h-15l-10 5-4 5-3 6-1 1h-12l-17-1 1-9 6-12 8-9 14-8 9-3zm2 71-9 3-5 6-1 2v8l4 7 5 3 4 1h13l8-3 7-6 7-14 1-6-1-1z" fill="#fff"/>
<path transform="translate(644,278)" d="m0 0h24l12 3 12 6 11 9 7 11 5 11 2 10v19l-2 1h-90l4 12 5 8 8 6 9 3h12l10-4 7-7 2-3h31l-1 6-8 13-10 10-12 7-14 4h-24l-14-4-11-6-11-10-7-11-4-9-3-16v-13l3-14 5-12 7-10 9-9 12-7zm5 25-10 4-8 8-5 10v3l5 1h49l6-1-3-11-6-8-9-5-4-1z" fill="#fff"/>
<path transform="translate(1694,278)" d="m0 0h25l11 3 11 6 9 10 6 13v4l-12 1h-16l-4-4-3-5-7-3h-16l-7 4-2 3 1 7 5 4 11 4 29 8 12 5 8 7 4 8 2 10-1 10-4 9-6 8-8 6-12 5-9 2h-25l-16-5-10-6-9-9-6-12-1-8 1-1h29l3 5 6 7 9 4h16l8-5 2-3v-8l-2-4-9-4-30-8-12-5-9-6-4-5-4-10v-10l3-10 6-8 9-8 9-4z" fill="#fff"/>
<path transform="translate(790,278)" d="m0 0h25l12 3 12 6 12 11 7 11 4 13-31 1-4-4-4-6-6-5-8-3h-12l-9 3-9 8-5 11-1 5v18l4 11 6 8 8 5 7 2h10l8-3 6-4 5-6 3-5h31l1 2-5 13-6 9-6 7-10 7-13 5-8 2h-24l-11-3-14-7-10-9-7-10-5-11-3-11-1-14 3-17 5-12 7-11 7-7 11-7 9-4z" fill="#fff"/>
<path transform="translate(1229,231)" d="m0 0h31v145h64l11 1v23l-105 1-1-1-1-24v-124z" fill="#fff"/>
<path transform="translate(452,280)" d="m0 0h33l4 10 23 69 2 9 3-3 16-47 12-36 2-2h31l-1 6-11 31-19 51-12 32h-38l-5-10-17-47-14-38z" fill="#fff"/>
<path transform="translate(905,248)" d="m0 0h27v32h32l1 1v25h-33l1 59 2 5 9 3 20 1v26h-32l-13-4-6-4-7-8-4-10-1-7v-61h-20v-26h20l1-15 2-16z" fill="#fff"/>
<path transform="translate(1197,278)" d="m0 0h10v31l-1 1-21 2-9 4-7 6-4 10-1 5-1 63h-31l-1-5v-114l1-1h27l2 7 1 12h2l8-9 10-7 10-4z" fill="#fff"/>
<path transform="translate(1822,364)" d="m0 0h19l8 4 7 7 4 9 1 9-2 11-5 8-7 6-9 3h-15l-8-4-5-4-6-9-2-5v-13l4-9 7-8z" fill="#09F0CA"/>
<path transform="translate(105,377)" d="m0 0 2 4 1 9v3 14h2l3 4 3 1h9l8-2 3-2 10-2h4l2-4 6-3 4-5 6-3 6 2h2v2h11l3-1v-2h2l1-3h4l5-8 4-1-4 16-7 23-4 6-5 1h-83l-5-2-3-4v-8z" fill="#13E7EA"/>
<path transform="translate(258,334)" d="m0 0h15l9 1 7 3v2l5 1 3 4-5 3-23 5-9 4-11 4-4-6h-4l1-10 6-7 7-3z" fill="#04F1C8"/>
<path transform="translate(429,280)" d="m0 0 1 2-5 16-5 4h-43v-1l11-1 9-3-6-2-2-2h11l6-1h8v-2l4-1 5 2 4-7z" fill="#20E8EB"/>
<path transform="translate(187,415)" d="m0 0 5 2 3 2-4 6-5 1h-30v-2l21-1 6-3z" fill="#18DAFE"/>
<path transform="translate(248,329)" d="m0 0h39v1h-10v2h-22l-7-2z" fill="#04F1C8"/>
<path transform="translate(327,284)" d="m0 0h1v7h2l4 9 19 1v1h-21l-5-4-1-2v-8z" fill="#12E6EB"/>
<path transform="translate(405,328)" d="m0 0 4 1 2 3-7 3h-10l-4-2 13-1 2-1h-9v-1l8-1z" fill="#10D8FE"/>
</svg>
